<svg version="1.1" id="Layer_1" xmlns="http://www.w3.org/2000/svg" xmlns:xlink="http://www.w3.org/1999/xlink" x="0px" y="0px"
	 width="100%" viewBox="0 0 512 512" enable-background="new 0 0 512 512" xml:space="preserve">
<path fill="#4C24FF" opacity="1.000000" stroke="none" 
	d="
M1.000001,460.000000 
	C1.000000,324.976685 1.000000,189.953354 1.282586,54.803398 
	C2.143905,53.565723 2.890780,52.509674 3.274987,51.335007 
	C6.591066,41.196487 11.244965,31.845770 18.553051,23.906399 
	C27.720646,13.946888 38.572933,6.778084 51.661190,3.065238 
	C52.563473,2.809281 53.225986,1.708109 54.000000,1.000001 
	C189.023331,1.000000 324.046661,1.000000 459.196594,1.282607 
	C460.434296,2.143921 461.490356,2.890740 462.665039,3.274970 
	C472.803436,6.591244 482.154236,11.245021 490.093536,18.553219 
	C500.052917,27.720921 507.221954,38.573036 510.934692,51.661350 
	C511.190643,52.563583 512.291870,53.226036 513.000000,54.000000 
	C513.000000,189.023331 513.000000,324.046661 512.717407,459.196594 
	C511.856079,460.434296 511.109222,461.490326 510.725006,462.664978 
	C507.408905,472.803497 502.755005,482.154266 495.446899,490.093597 
	C486.279266,500.053040 475.427094,507.222107 462.338745,510.934814 
	C461.436462,511.190704 460.773987,512.291870 460.000000,513.000000 
	C324.976685,513.000000 189.953354,513.000000 54.803406,512.717407 
	C53.565735,511.856049 52.509682,511.109161 51.335011,510.724945 
	C41.196442,507.408936 31.845793,502.754944 23.906437,495.446869 
	C13.946947,486.279266 6.777947,475.427094 3.065266,462.338715 
	C2.809329,461.436462 1.708124,460.773987 1.000001,460.000000 
M259.728363,311.284180 
	C248.945877,351.499939 272.285522,392.079742 312.269531,402.635651 
	C351.436890,412.976013 391.959625,389.472076 402.453308,350.140045 
	C407.623230,330.762299 405.423676,312.035645 395.385620,294.671234 
	C381.414948,270.504028 359.791565,258.410156 330.325775,256.627930 
	C355.760345,231.198822 380.056671,206.907684 404.494690,182.474884 
	C380.572601,158.560074 356.692596,134.623535 332.661285,110.839867 
	C331.375641,109.567505 328.818817,109.085472 326.849030,109.074310 
	C305.359253,108.952477 283.868561,108.992752 262.378113,109.010193 
	C260.987640,109.011322 259.597321,109.187378 258.206909,109.282059 
	C257.944885,109.700706 257.682861,110.119354 257.420837,110.538002 
	C281.716553,134.831436 306.012238,159.124878 330.465790,183.576172 
	C318.336395,195.691208 306.199768,207.812790 294.063904,219.935104 
	C282.005524,231.980042 269.947906,244.025726 257.021240,256.938904 
	C278.598846,256.938904 298.805481,256.938904 319.012115,256.938904 
	C289.480133,264.114075 269.204285,281.196564 259.728363,311.284180 
M246.253525,267.753693 
	C249.550262,264.446686 252.846985,261.139648 256.981659,256.992065 
	C235.032166,256.992065 214.566742,256.992065 192.896805,256.992065 
	C244.017258,247.050278 262.313873,201.872314 255.826569,169.232193 
	C248.549576,132.618866 216.080917,107.183441 178.616989,109.085335 
	C142.355042,110.926208 112.233772,140.273422 109.245132,176.985428 
	C107.772026,195.080780 112.331650,211.748276 123.117775,226.387985 
	C137.612564,246.061340 157.510727,255.974854 183.370010,257.271118 
	C158.059174,282.577606 133.759247,306.873413 109.303543,331.324921 
	C133.386978,355.402893 157.270782,379.344635 181.304764,403.134705 
	C182.593018,404.409943 185.141785,404.913361 187.108612,404.924530 
	C208.769821,405.047729 230.431992,405.006256 252.093887,404.990265 
	C253.322357,404.989380 254.550674,404.821228 255.779068,404.730896 
	C256.039734,404.316223 256.300385,403.901520 256.561066,403.486847 
	C232.264160,379.192505 207.967270,354.898132 183.524185,330.457611 
	C204.278793,309.711456 225.016083,288.982605 246.253525,267.753693 
z"/>
<path fill="#000000" opacity="1.000000" stroke="none" 
	d="
M53.531342,1.000001 
	C53.225986,1.708109 52.563473,2.809281 51.661190,3.065238 
	C38.572933,6.778084 27.720646,13.946888 18.553051,23.906399 
	C11.244965,31.845770 6.591066,41.196487 3.274987,51.335007 
	C2.890780,52.509674 2.143905,53.565723 1.282586,54.338383 
	C1.000000,36.406563 1.000000,18.813124 1.000000,1.000000 
	C18.353609,1.000000 35.708145,1.000000 53.531342,1.000001 
z"/>
<path fill="#000000" opacity="1.000000" stroke="none" 
	d="
M513.000000,53.531342 
	C512.291870,53.226036 511.190643,52.563583 510.934692,51.661350 
	C507.221954,38.573036 500.052917,27.720921 490.093536,18.553219 
	C482.154236,11.245021 472.803436,6.591244 462.665039,3.274970 
	C461.490356,2.890740 460.434296,2.143921 459.661621,1.282607 
	C477.593445,1.000000 495.186890,1.000000 513.000000,1.000000 
	C513.000000,18.353611 513.000000,35.708145 513.000000,53.531342 
z"/>
<path fill="#000000" opacity="1.000000" stroke="none" 
	d="
M1.000001,460.468658 
	C1.708124,460.773987 2.809329,461.436462 3.065266,462.338715 
	C6.777947,475.427094 13.946947,486.279266 23.906437,495.446869 
	C31.845793,502.754944 41.196442,507.408936 51.335011,510.724945 
	C52.509682,511.109161 53.565735,511.856049 54.338394,512.717407 
	C36.406567,513.000000 18.813131,513.000000 1.000000,513.000000 
	C1.000000,495.646393 1.000000,478.291840 1.000001,460.468658 
z"/>
<path fill="#000000" opacity="1.000000" stroke="none" 
	d="
M460.468658,513.000000 
	C460.773987,512.291870 461.436462,511.190704 462.338745,510.934814 
	C475.427094,507.222107 486.279266,500.053040 495.446899,490.093597 
	C502.755005,482.154266 507.408905,472.803497 510.725006,462.664978 
	C511.109222,461.490326 511.856079,460.434296 512.717407,459.661621 
	C513.000000,477.593445 513.000000,495.186890 513.000000,513.000000 
	C495.646393,513.000000 478.291840,513.000000 460.468658,513.000000 
z"/>
<path fill="#FEFEFF" opacity="1.000000" stroke="none" 
	d="
M259.824280,310.888062 
	C269.204285,281.196564 289.480133,264.114075 319.012115,256.938904 
	C298.805481,256.938904 278.598846,256.938904 257.021240,256.938904 
	C269.947906,244.025726 282.005524,231.980042 294.063904,219.935104 
	C306.199768,207.812790 318.336395,195.691208 330.465790,183.576172 
	C306.012238,159.124878 281.716553,134.831436 257.420837,110.538002 
	C257.682861,110.119354 257.944885,109.700706 258.206909,109.282059 
	C259.597321,109.187378 260.987640,109.011322 262.378113,109.010193 
	C283.868561,108.992752 305.359253,108.952477 326.849030,109.074310 
	C328.818817,109.085472 331.375641,109.567505 332.661285,110.839867 
	C356.692596,134.623535 380.572601,158.560074 404.494690,182.474884 
	C380.056671,206.907684 355.760345,231.198822 330.325775,256.627930 
	C359.791565,258.410156 381.414948,270.504028 395.385620,294.671234 
	C405.423676,312.035645 407.623230,330.762299 402.453308,350.140045 
	C391.959625,389.472076 351.436890,412.976013 312.269531,402.635651 
	C272.285522,392.079742 248.945877,351.499939 259.824280,310.888062 
M310.396454,324.134430 
	C307.887695,335.223694 311.077789,344.048889 319.504456,349.331177 
	C327.373962,354.264130 337.570465,353.655609 344.614349,347.832581 
	C351.719177,341.959229 354.439880,332.628937 351.556549,324.025665 
	C348.787262,315.762665 340.956482,309.848785 332.074402,309.312561 
	C322.774902,308.751160 314.989807,313.895721 310.396454,324.134430 
z"/>
<path fill="#FEFEFF" opacity="1.000000" stroke="none" 
	d="
M246.003448,268.003723 
	C225.016083,288.982605 204.278793,309.711456 183.524185,330.457611 
	C207.967270,354.898132 232.264160,379.192505 256.561066,403.486847 
	C256.300385,403.901520 256.039734,404.316223 255.779068,404.730896 
	C254.550674,404.821228 253.322357,404.989380 252.093887,404.990265 
	C230.431992,405.006256 208.769821,405.047729 187.108612,404.924530 
	C185.141785,404.913361 182.593018,404.409943 181.304764,403.134705 
	C157.270782,379.344635 133.386978,355.402893 109.303543,331.324921 
	C133.759247,306.873413 158.059174,282.577606 183.370010,257.271118 
	C157.510727,255.974854 137.612564,246.061340 123.117775,226.387985 
	C112.331650,211.748276 107.772026,195.080780 109.245132,176.985428 
	C112.233772,140.273422 142.355042,110.926208 178.616989,109.085335 
	C216.080917,107.183441 248.549576,132.618866 255.826569,169.232193 
	C262.313873,201.872314 244.017258,247.050278 192.896805,256.992065 
	C214.566742,256.992065 235.032166,256.992065 256.981659,256.992065 
	C252.846985,261.139648 249.550262,264.446686 246.003448,268.003723 
M163.945267,193.340134 
	C165.257538,195.041992 166.395996,196.919693 167.910568,198.416916 
	C177.025085,207.426956 191.333603,206.667862 199.676407,196.820679 
	C207.700562,187.349564 205.927597,173.023331 195.806625,165.551163 
	C188.238129,159.963455 177.722687,159.943680 170.232773,165.503098 
	C161.755417,171.795456 159.368546,181.577866 163.945267,193.340134 
z"/>
<path fill="#4E27FF" opacity="1.000000" stroke="none" 
	d="
M310.558350,323.779114 
	C314.989807,313.895721 322.774902,308.751160 332.074402,309.312561 
	C340.956482,309.848785 348.787262,315.762665 351.556549,324.025665 
	C354.439880,332.628937 351.719177,341.959229 344.614349,347.832581 
	C337.570465,353.655609 327.373962,354.264130 319.504456,349.331177 
	C311.077789,344.048889 307.887695,335.223694 310.558350,323.779114 
z"/>
<path fill="#4F27FF" opacity="1.000000" stroke="none" 
	d="
M163.775360,193.002411 
	C159.368546,181.577866 161.755417,171.795456 170.232773,165.503098 
	C177.722687,159.943680 188.238129,159.963455 195.806625,165.551163 
	C205.927597,173.023331 207.700562,187.349564 199.676407,196.820679 
	C191.333603,206.667862 177.025085,207.426956 167.910568,198.416916 
	C166.395996,196.919693 165.257538,195.041992 163.775360,193.002411 
z"/>
</svg>