<svg width="131" height="30" viewBox="0 0 131 30" fill="none" xmlns="http://www.w3.org/2000/svg">
<path d="M21.8335 1.33848H16.843L10.9168 11.0388L4.99052 1.33848H0V23.172H4.99052V10.4774L10.636 19.741H11.1975L16.843 10.4774V23.172H21.8335V1.33848Z" fill="#8B5CF6"/>
<path d="M26.8338 6.20423C28.3621 6.20423 29.6409 4.92542 29.6409 3.39707C29.6409 1.86872 28.3621 0.589905 26.8338 0.589905C25.3054 0.589905 24.0266 1.86872 24.0266 3.39707C24.0266 4.92542 25.3054 6.20423 26.8338 6.20423ZM24.4945 23.172H29.1731V7.57663H24.4945V23.172Z" fill="#8B5CF6"/>
<path d="M40.7999 7.13996C38.7413 7.13996 37.1818 7.88854 36.3396 9.04259V7.57663H31.661V23.172H36.3396V14.6569C36.3396 12.4424 37.5249 11.4443 39.2404 11.4443C40.7375 11.4443 41.954 12.3488 41.954 14.2826V23.172H46.6326V13.5964C46.6326 9.38569 43.9502 7.13996 40.7999 7.13996Z" fill="#8B5CF6"/>
<path d="M51.249 6.20423C52.7774 6.20423 54.0562 4.92542 54.0562 3.39707C54.0562 1.86872 52.7774 0.589905 51.249 0.589905C49.7207 0.589905 48.4419 1.86872 48.4419 3.39707C48.4419 4.92542 49.7207 6.20423 51.249 6.20423ZM48.9097 23.172H53.5883V7.57663H48.9097V23.172Z" fill="#8B5CF6"/>
<path d="M63.874 23.6087C68.615 23.6087 71.9836 21.1134 71.9836 16.9027C71.9836 12.2864 68.2719 11.1324 64.9656 10.1343C61.5659 9.10497 61.0356 8.41878 61.0356 7.42067C61.0356 6.54733 61.8154 5.76757 63.3749 5.76757C65.3711 5.76757 66.4004 6.73448 67.149 8.29401L71.3597 5.82995C69.769 2.6173 66.9619 0.901812 63.3749 0.901812C59.6008 0.901812 56.0451 3.33469 56.0451 7.54544C56.0451 11.725 59.2266 13.2845 62.4704 14.1891C65.7454 15.0936 66.993 15.6238 66.993 16.965C66.993 17.8072 66.4004 18.7429 64.0299 18.7429C61.5659 18.7429 60.2247 17.5265 59.4449 15.7174L55.1406 18.2127C56.357 21.4253 59.2889 23.6087 63.874 23.6087Z" fill="#8B5CF6"/>
<path d="M89.9316 7.57663L87.6859 15.9357L85.253 7.57663H80.8863L78.4534 15.9357L76.2077 7.57663H71.2172L76.2077 23.172H80.5744L83.0697 14.8441L85.5649 23.172H89.9316L94.9221 7.57663H89.9316Z" fill="#8B5CF6"/>
<path d="M106.556 7.57663V9.04259C105.527 7.85734 103.999 7.13996 101.909 7.13996C97.8229 7.13996 94.4543 10.7269 94.4543 15.3743C94.4543 20.0217 97.8229 23.6087 101.909 23.6087C103.999 23.6087 105.527 22.8913 106.556 21.706V23.172H111.235V7.57663H106.556ZM102.845 19.1796C100.692 19.1796 99.1329 17.7136 99.1329 15.3743C99.1329 13.035 100.692 11.569 102.845 11.569C104.997 11.569 106.556 13.035 106.556 15.3743C106.556 17.7136 104.997 19.1796 102.845 19.1796Z" fill="#8B5CF6"/>
<path d="M123.058 7.13996C120.968 7.13996 119.44 7.85734 118.41 9.04259V7.57663H113.732V29.4101H118.41V21.706C119.44 22.8913 120.968 23.6087 123.058 23.6087C127.144 23.6087 130.512 20.0217 130.512 15.3743C130.512 10.7269 127.144 7.13996 123.058 7.13996ZM122.122 19.1796C119.97 19.1796 118.41 17.7136 118.41 15.3743C118.41 13.035 119.97 11.569 122.122 11.569C124.274 11.569 125.834 13.035 125.834 15.3743C125.834 17.7136 124.274 19.1796 122.122 19.1796Z" fill="#8B5CF6"/>
</svg>
