<svg width="512" height="512" viewBox="0 0 512 512" fill="none" xmlns="http://www.w3.org/2000/svg">
<rect width="512" height="512" fill="#08090B"/>
<path d="M341.181 164.769L328.764 219.652L312.884 153.434L257.245 130.884L242.202 197.221L228.949 119.43L173.31 97L116 350.178H176.773L194.324 272.387L207.577 350.178H268.469L283.393 283.841L299.273 350.178H360.045L396.939 187.199L341.181 164.769Z" fill="white"/>
<circle cx="140.669" cy="205.669" r="52.6687" fill="#08090B" stroke="#08090B" stroke-width="8"/>
<path d="M123.459 226.781L110.667 185.668L120.978 185.744L128.575 210.214L136.289 185.744H145.049L152.762 210.214L160.359 185.744H170.67L157.878 226.781H149.816L140.669 200.031L131.521 226.781H123.459Z" fill="white"/>
<path d="M123.459 226.781L110.667 185.668L120.978 185.744L128.575 210.214L136.289 185.744H145.049L152.762 210.214L160.359 185.744H170.67L157.878 226.781H149.816L140.669 200.031L131.521 226.781H123.459Z" stroke="black"/>
</svg>
